<mxfile host="app.diagrams.net" agent="Mozilla/5.0 (Macintosh; Intel Mac OS X 10_15_7) AppleWebKit/537.36 (KHTML, like Gecko) Chrome/136.0.0.0 Safari/537.36" version="27.1.1">
  <diagram name="第 1 页" id="F9XWEiuC8iQF-FuhdzgJ">
    <mxGraphModel dx="946" dy="610" grid="1" gridSize="10" guides="1" tooltips="1" connect="1" arrows="1" fold="1" page="1" pageScale="1" pageWidth="827" pageHeight="1169" math="0" shadow="0">
      <root>
        <mxCell id="0" />
        <mxCell id="1" parent="0" />
        <mxCell id="Ua_5Ni9TRIw10Cr9BPb5-10" value="" style="edgeStyle=orthogonalEdgeStyle;rounded=0;orthogonalLoop=1;jettySize=auto;html=1;" edge="1" parent="1" source="Ua_5Ni9TRIw10Cr9BPb5-2" target="Ua_5Ni9TRIw10Cr9BPb5-4">
          <mxGeometry relative="1" as="geometry" />
        </mxCell>
        <mxCell id="Ua_5Ni9TRIw10Cr9BPb5-22" value="N" style="edgeLabel;html=1;align=center;verticalAlign=middle;resizable=0;points=[];" vertex="1" connectable="0" parent="Ua_5Ni9TRIw10Cr9BPb5-10">
          <mxGeometry x="-0.15" relative="1" as="geometry">
            <mxPoint x="10" as="offset" />
          </mxGeometry>
        </mxCell>
        <mxCell id="Ua_5Ni9TRIw10Cr9BPb5-11" value="" style="edgeStyle=orthogonalEdgeStyle;rounded=0;orthogonalLoop=1;jettySize=auto;html=1;" edge="1" parent="1" source="Ua_5Ni9TRIw10Cr9BPb5-2" target="Ua_5Ni9TRIw10Cr9BPb5-7">
          <mxGeometry relative="1" as="geometry" />
        </mxCell>
        <mxCell id="Ua_5Ni9TRIw10Cr9BPb5-21" value="Y" style="edgeLabel;html=1;align=center;verticalAlign=middle;resizable=0;points=[];" vertex="1" connectable="0" parent="Ua_5Ni9TRIw10Cr9BPb5-11">
          <mxGeometry x="-0.35" relative="1" as="geometry">
            <mxPoint y="-10" as="offset" />
          </mxGeometry>
        </mxCell>
        <mxCell id="Ua_5Ni9TRIw10Cr9BPb5-2" value="Indirect?" style="rhombus;whiteSpace=wrap;html=1;fillColor=#f8cecc;strokeColor=#b85450;" vertex="1" parent="1">
          <mxGeometry x="200" y="160" width="80" height="40" as="geometry" />
        </mxCell>
        <mxCell id="Ua_5Ni9TRIw10Cr9BPb5-9" value="" style="edgeStyle=orthogonalEdgeStyle;rounded=0;orthogonalLoop=1;jettySize=auto;html=1;" edge="1" parent="1" source="Ua_5Ni9TRIw10Cr9BPb5-3" target="Ua_5Ni9TRIw10Cr9BPb5-2">
          <mxGeometry relative="1" as="geometry" />
        </mxCell>
        <mxCell id="Ua_5Ni9TRIw10Cr9BPb5-3" value="Fetch" style="rounded=0;whiteSpace=wrap;html=1;fillColor=#d5e8d4;strokeColor=#82b366;" vertex="1" parent="1">
          <mxGeometry x="200" y="80" width="80" height="40" as="geometry" />
        </mxCell>
        <mxCell id="Ua_5Ni9TRIw10Cr9BPb5-14" value="" style="edgeStyle=orthogonalEdgeStyle;rounded=0;orthogonalLoop=1;jettySize=auto;html=1;" edge="1" parent="1" source="Ua_5Ni9TRIw10Cr9BPb5-4" target="Ua_5Ni9TRIw10Cr9BPb5-5">
          <mxGeometry relative="1" as="geometry" />
        </mxCell>
        <mxCell id="Ua_5Ni9TRIw10Cr9BPb5-4" value="Execute" style="rounded=0;whiteSpace=wrap;html=1;fillColor=#d5e8d4;strokeColor=#82b366;" vertex="1" parent="1">
          <mxGeometry x="200" y="240" width="80" height="40" as="geometry" />
        </mxCell>
        <mxCell id="Ua_5Ni9TRIw10Cr9BPb5-15" value="" style="edgeStyle=orthogonalEdgeStyle;rounded=0;orthogonalLoop=1;jettySize=auto;html=1;" edge="1" parent="1" source="Ua_5Ni9TRIw10Cr9BPb5-5" target="Ua_5Ni9TRIw10Cr9BPb5-8">
          <mxGeometry relative="1" as="geometry" />
        </mxCell>
        <mxCell id="Ua_5Ni9TRIw10Cr9BPb5-23" value="Y" style="edgeLabel;html=1;align=center;verticalAlign=middle;resizable=0;points=[];" vertex="1" connectable="0" parent="Ua_5Ni9TRIw10Cr9BPb5-15">
          <mxGeometry x="-0.3" y="2" relative="1" as="geometry">
            <mxPoint y="-8" as="offset" />
          </mxGeometry>
        </mxCell>
        <mxCell id="Ua_5Ni9TRIw10Cr9BPb5-18" style="edgeStyle=orthogonalEdgeStyle;rounded=0;orthogonalLoop=1;jettySize=auto;html=1;exitX=0.5;exitY=1;exitDx=0;exitDy=0;entryX=0.5;entryY=0;entryDx=0;entryDy=0;" edge="1" parent="1" source="Ua_5Ni9TRIw10Cr9BPb5-5" target="Ua_5Ni9TRIw10Cr9BPb5-3">
          <mxGeometry relative="1" as="geometry">
            <Array as="points">
              <mxPoint x="240" y="400" />
              <mxPoint x="160" y="400" />
              <mxPoint x="160" y="60" />
              <mxPoint x="240" y="60" />
            </Array>
          </mxGeometry>
        </mxCell>
        <mxCell id="Ua_5Ni9TRIw10Cr9BPb5-24" value="N" style="edgeLabel;html=1;align=center;verticalAlign=middle;resizable=0;points=[];" vertex="1" connectable="0" parent="Ua_5Ni9TRIw10Cr9BPb5-18">
          <mxGeometry x="-0.9357" relative="1" as="geometry">
            <mxPoint x="10" as="offset" />
          </mxGeometry>
        </mxCell>
        <mxCell id="Ua_5Ni9TRIw10Cr9BPb5-5" value="Interrupt?" style="rhombus;whiteSpace=wrap;html=1;fillColor=#f8cecc;strokeColor=#b85450;" vertex="1" parent="1">
          <mxGeometry x="200" y="320" width="80" height="40" as="geometry" />
        </mxCell>
        <mxCell id="Ua_5Ni9TRIw10Cr9BPb5-13" style="edgeStyle=orthogonalEdgeStyle;rounded=0;orthogonalLoop=1;jettySize=auto;html=1;exitX=0.5;exitY=1;exitDx=0;exitDy=0;entryX=1;entryY=0.5;entryDx=0;entryDy=0;" edge="1" parent="1" source="Ua_5Ni9TRIw10Cr9BPb5-7" target="Ua_5Ni9TRIw10Cr9BPb5-4">
          <mxGeometry relative="1" as="geometry" />
        </mxCell>
        <mxCell id="Ua_5Ni9TRIw10Cr9BPb5-7" value="Indirect" style="rounded=0;whiteSpace=wrap;html=1;fillColor=#d5e8d4;strokeColor=#82b366;" vertex="1" parent="1">
          <mxGeometry x="320" y="160" width="80" height="40" as="geometry" />
        </mxCell>
        <mxCell id="Ua_5Ni9TRIw10Cr9BPb5-19" style="edgeStyle=orthogonalEdgeStyle;rounded=0;orthogonalLoop=1;jettySize=auto;html=1;exitX=0.5;exitY=1;exitDx=0;exitDy=0;entryX=0.5;entryY=0;entryDx=0;entryDy=0;" edge="1" parent="1" source="Ua_5Ni9TRIw10Cr9BPb5-8" target="Ua_5Ni9TRIw10Cr9BPb5-3">
          <mxGeometry relative="1" as="geometry">
            <Array as="points">
              <mxPoint x="360" y="400" />
              <mxPoint x="160" y="400" />
              <mxPoint x="160" y="60" />
              <mxPoint x="240" y="60" />
            </Array>
          </mxGeometry>
        </mxCell>
        <mxCell id="Ua_5Ni9TRIw10Cr9BPb5-8" value="Interrupt" style="rounded=0;whiteSpace=wrap;html=1;fillColor=#d5e8d4;strokeColor=#82b366;" vertex="1" parent="1">
          <mxGeometry x="320" y="320" width="80" height="40" as="geometry" />
        </mxCell>
        <mxCell id="Ua_5Ni9TRIw10Cr9BPb5-20" value="Instruction Cycle Flowchart" style="rounded=0;whiteSpace=wrap;html=1;fillColor=#f5f5f5;fontColor=#333333;strokeColor=#666666;" vertex="1" parent="1">
          <mxGeometry x="160" y="440" width="240" height="40" as="geometry" />
        </mxCell>
      </root>
    </mxGraphModel>
  </diagram>
</mxfile>
